:SAMPLES-PER-SECOND 30
:FRAME-RANGE 1-1770
:FULLY-SPECIFIED
:DEGREES
941
root  -29.3724 39.3707 -29.1706 15.5583 -73.8755 -9.36523
RightUpLeg  5.94918 -6.25994 -3.04106
RightLeg  2.61412 0.356761 1.5855
RightFoot  -12.9367 0.104723 13.7972
RightToes  6.35937e-011 1.2921e-014 -6.02303e-014
Spine  8.17152 1.93529 3.7731
Spine1  2.94108 4.1983 -9.43966
HEad  -2.82848 8.5673 -1.51129
LeftShoulder1  1.28936 0.263079 -33.7184
LeftArm  7.94035 27.1598 -32.7929
LeftForeArm  10.4394 -7.33545 -15.8631
LeftHand  0.258151 -1.5537 -4.19236
RightShoulder  8.87916 11.7651 50.9187
RightArm  38.0195 -0.779388 21.1172
RightForeArm  5.42724 31.1839 6.53899
RightHand  -0.164905 3.9274 -2.32021
LeftUpLeg  -27.2137 7.02708 1.53717
LeftLeg  0.766169 27.9851 -4.99872
LeftFoot  -3.59265 0.643016 -9.16374
LeftToes  3.18074e-010 1.39432e-010 -7.71186e-011
942
root  -30.8752 38.9925 -28.3193 16.9617 -75.2375 -11.8791
RightUpLeg  8.41173 -7.06027 -4.28016
RightLeg  5.35783 3.45255 1.59762
RightFoot  -15.39 0.429298 15.036
RightToes  6.35937e-011 1.2921e-014 -6.02303e-014
Spine  7.56646 2.00728 4.00242
Spine1  3.14942 4.32798 -9.63488
HEad  -2.6394 10.7637 -1.09867
LeftShoulder1  1.25053 0.369779 -33.8311
LeftArm  3.22271 27.9854 -31.9096
LeftForeArm  12.1771 -2.51697 -17.2489
LeftHand  0.414643 -1.40873 -6.97435
RightShoulder  8.837 11.6711 50.9904
RightArm  42.9641 -0.675904 21.1558
RightForeArm  1.64704 27.4135 5.82494
RightHand  -0.136407 4.30008 -1.91335
LeftUpLeg  -25.8451 6.92605 1.34801
LeftLeg  -0.942287 28.8827 -5.74726
LeftFoot  -3.3061 0.658621 -9.0825
LeftToes  3.18074e-010 1.39432e-010 -7.71186e-011
943
root  -32.4269 38.5974 -27.4132 17.1478 -76.3566 -13.5764
RightUpLeg  10.1851 -8.73441 -6.42943
RightLeg  10.7578 8.07395 2.18287
RightFoot  -17.3733 0.79018 17.1308
RightToes  6.35937e-011 1.2921e-014 -6.02303e-014
Spine  7.37856 1.97681 3.16708
Spine1  3.47013 4.26586 -9.36182
HEad  -2.22253 12.9558 -0.355268
LeftShoulder1  1.2195 0.464862 -34.0541
LeftArm  2.95063 28.5325 -31.0491
LeftForeArm  11.1554 0.424779 -17.9813
LeftHand  0.457453 -0.998241 -8.24745
RightShoulder  8.69307 11.379 51.1432
RightArm  48.9064 -0.592849 20.9798
RightForeArm  -4.32289 22.9196 5.3866
RightHand  -0.0870955 4.40121 -1.31573
LeftUpLeg  -25.6658 6.79649 0.225169
LeftLeg  4.82255 26.3671 -2.97765
LeftFoot  -0.527797 0.265347 -2.77051
LeftToes  3.18074e-010 1.39432e-010 -7.71186e-011
944
root  -33.9173 38.222 -26.4797 11.9319 -78.071 -9.95418
RightUpLeg  9.30894 -6.69955 -9.60114
RightLeg  20.9945 10.1761 4.08044
RightFoot  -17.9309 1.12622 21.4595
RightToes  6.35937e-011 1.2921e-014 -6.02303e-014
Spine  8.05471 2.23312 0.126725
Spine1  3.13382 4.00466 -8.29343
HEad  -2.55532 15.1995 0.431494
LeftShoulder1  1.20538 0.535537 -34.5255
LeftArm  5.36673 28.2437 -30.1623
LeftForeArm  9.19449 1.60344 -18.4899
LeftHand  0.441313 -0.574322 -8.572
RightShoulder  8.76069 11.2464 51.9863
RightArm  42.3826 0.074465 19.3418
RightForeArm  0.350256 16.7762 10.5628
RightHand  -0.040423 4.47032 -0.761772
LeftUpLeg  -25.808 7.71607 -2.84483
LeftLeg  11.8826 24.9539 1.39541
LeftFoot  5.5645 -1.41636 9.28025
LeftToes  3.18074e-010 1.39432e-010 -7.71186e-011
945
root  -35.2514 37.8703 -25.6032 0.971924 -77.8699 0.127213
RightUpLeg  4.80221 -3.62926 -12.9687
RightLeg  35.593 9.06827 6.67348
RightFoot  -13.0906 0.345879 28.0149
RightToes  6.35937e-011 1.2921e-014 -6.02303e-014
Spine  9.25424 1.98372 -3.85672
Spine1  2.14497 2.88512 -6.88569
HEad  -3.08975 16.8391 0.598211
LeftShoulder1  1.35264 0.238047 -35.3247
LeftArm  13.3268 25.4396 -29.0686
LeftForeArm  3.90752 0.778482 -19.2419
LeftHand  0.418647 -0.424703 -8.35877
RightShoulder  8.74427 10.8826 53.1639
RightArm  22.825 1.61207 17.0545
RightForeArm  14.0928 6.01458 16.3714
RightHand  0.000315702 4.37046 -0.278955
LeftUpLeg  -27.1376 13.3237 -9.35699
LeftLeg  20.2213 17.2488 6.43163
LeftFoot  1.49003 -1.11011 9.76612
LeftToes  3.18074e-010 1.39432e-010 -7.71186e-011
946
root  -36.4853 37.802 -24.7071 -4.14929 -77.2242 4.37195
RightUpLeg  -1.84441 -0.788702 -14.323
RightLeg  49.5914 5.04338 5.98833
RightFoot  0.5079 -2.75905 26.1896
RightToes  6.35937e-011 1.2921e-014 -6.02303e-014
Spine  9.70737 1.66351 -4.56097
Spine1  2.39645 2.53481 -7.69608
HEad  -3.56539 17.5469 -0.097691
LeftShoulder1  1.55912 -0.276367 -35.1623
LeftArm  20.8676 20.3458 -29.0629
LeftForeArm  0.349976 -1.23632 -19.5212
LeftHand  0.397083 -0.373746 -8.00415
RightShoulder  8.58408 10.6979 52.88
RightArm  5.41487 1.55942 16.1306
RightForeArm  21.2079 -3.14817 16.706
RightHand  0.0399973 3.97202 0.227819
LeftUpLeg  -25.356 15.465 -11.4311
LeftLeg  23.2564 14.7545 6.841
LeftFoot  -2.12974 -0.82712 10.396
LeftToes  3.18074e-010 1.39432e-010 -7.71186e-011
947
root  -37.6772 37.8497 -23.8105 -7.88336 -76.1156 7.54903
RightUpLeg  -8.66877 1.23891 -14.595
RightLeg  59.6512 1.54086 2.37428
RightFoot  15.6252 -3.69879 15.7955
RightToes  6.35937e-011 1.2921e-014 -6.02303e-014
Spine  9.64064 1.27888 -5.28183
Spine1  2.79682 2.06093 -8.03296
HEad  -3.46905 18.4213 -1.84669
LeftShoulder1  1.66755 -0.520597 -35.3532
LeftArm  26.8003 13.6622 -28.791
LeftForeArm  -3.36123 -3.15541 -19.5346
LeftHand  0.389502 -0.362704 -7.8676
RightShoulder  8.49743 10.7466 52.1891
RightArm  3.31697 0.534611 15.7074
RightForeArm  12.5232 -5.0285 17.1269
RightHand  -0.0133882 2.40315 -0.394923
LeftUpLeg  -22.5079 15.0263 -12.3631
LeftLeg  24.379 14.6937 6.63625
LeftFoot  -5.26748 -0.495282 9.90846
LeftToes  3.18074e-010 1.39432e-010 -7.71186e-011
948
root  -38.8503 37.9378 -22.9253 -8.12909 -73.7492 7.3093
RightUpLeg  -13.4165 1.58427 -14.5958
RightLeg  65.5384 0.183468 -0.176356
RightFoot  9.44973 -2.97218 16.4572
RightToes  6.35937e-011 1.2921e-014 -6.02303e-014
Spine  9.95054 0.587493 -5.89994
Spine1  2.39875 0.977217 -7.36663
HEad  -2.85787 19.1607 -3.18542
LeftShoulder1  1.70612 -0.553666 -35.952
LeftArm  27.9252 6.33361 -28.2808
LeftForeArm  -4.78314 -3.60829 -19.5359
LeftHand  0.345544 -0.226505 -7.16512
RightShoulder  7.97957 10.096 51.3765
RightArm  5.46284 -0.177609 15.164
RightForeArm  8.2719 -4.85672 17.6669
RightHand  0.0750903 1.95693 1.02021
LeftUpLeg  -19.2207 12.931 -12.5213
LeftLeg  24.65 14.8782 6.01151
LeftFoot  -7.8148 -0.236579 9.19545
LeftToes  3.18074e-010 1.39432e-010 -7.71186e-011
949
root  -40.042 38.2041 -21.9731 -5.78168 -70.6765 4.45016
RightUpLeg  -17.1778 2.21049 -13.0605
RightLeg  66.3049 -0.524059 -1.95942
RightFoot  7.08298 -2.228 13.9768
RightToes  6.35937e-011 1.2921e-014 -6.02303e-014
Spine  10.0305 -0.18764 -5.45285
Spine1  1.74949 0.00192709 -6.40451
HEad  -2.08153 19.342 -3.65107
LeftShoulder1  1.76979 -0.678884 -36.21
LeftArm  22.4628 -1.48303 -28.4818
LeftForeArm  -2.53579 -1.9449 -19.6193
LeftHand  0.275017 -0.231552 -5.6948
RightShoulder  7.09462 8.78655 50.5656
RightArm  8.38332 -0.945931 14.631
RightForeArm  10.89 -3.8771 17.7908
RightHand  0.145496 2.48665 1.94707
LeftUpLeg  -14.7836 8.62421 -11.7097
LeftLeg  22.7797 16.6271 4.83038
LeftFoot  -9.23506 -0.109321 8.95691
LeftToes  3.18074e-010 1.39432e-010 -7.71186e-011
950
root  -41.2138 38.449 -21.0403 -3.06866 -67.5563 1.37308
RightUpLeg  -20.4486 2.55739 -11.1025
RightLeg  63.4764 -1.36652 -3.5481
RightFoot  6.24669 -1.86134 12.2677
RightToes  6.35937e-011 1.2921e-014 -6.02303e-014
Spine  9.71657 -0.814142 -5.05906
Spine1  1.3464 -0.80053 -5.03375
HEad  -1.19112 19.5419 -3.6222
LeftShoulder1  1.83532 -0.903608 -35.56
LeftArm  12.3659 -8.59043 -30.1349
LeftForeArm  3.08774 0.275015 -19.1622
LeftHand  0.170652 0.0116842 -3.71724
RightShoulder  6.40313 7.82862 49.5087
RightArm  14.0554 -2.11421 14.4869
RightForeArm  12.9741 -1.39824 17.9461
RightHand  0.13355 3.46381 1.50392
LeftUpLeg  -10.6947 5.28013 -11.0321
LeftLeg  20.5555 17.2497 3.7203
LeftFoot  -10.32 -0.0161882 8.77808
LeftToes  3.18074e-010 1.39432e-010 -7.71186e-011
951
root  -42.3485 38.6239 -20.1136 -0.726868 -64.0224 -1.16974
RightUpLeg  -22.8815 4.22376 -8.84839
RightLeg  57.4567 -3.03553 -5.55669
RightFoot  4.89885 -1.77999 12.665
RightToes  6.35937e-011 1.2921e-014 -6.02303e-014
Spine  9.40294 -1.54569 -5.05573
Spine1  0.754822 -1.79662 -3.0224
HEad  -0.25079 20.1108 -3.34736
LeftShoulder1  1.9064 -1.20094 -34.4647
LeftArm  5.05139 -14.9207 -32.545
LeftForeArm  7.5502 -0.387019 -18.2068
LeftHand  0.129713 -0.0797122 -2.76758
RightShoulder  5.87098 7.11387 48.4525
RightArm  19.5366 -3.20211 14.5984
RightForeArm  14.112 1.14656 17.8148
RightHand  0.111107 4.1511 1.07637
LeftUpLeg  -6.82253 4.24973 -10.3932
LeftLeg  18.1165 14.9769 2.03416
LeftFoot  -11.45 0.0778379 9.27361
LeftToes  3.18074e-010 1.39432e-010 -7.71186e-011
952
root  -43.459 38.7572 -19.1873 0.898499 -60.4365 -3.07469
RightUpLeg  -24.0587 4.83497 -6.9785
RightLeg  48.3486 -5.1548 -6.50415
RightFoot  3.95536 -1.63159 12.3092
RightToes  6.35937e-011 1.2921e-014 -6.02303e-014
Spine  9.10678 -2.24847 -5.19135
Spine1  0.456345 -2.76139 -0.891101
HEad  0.119539 20.7839 -3.10208
LeftShoulder1  1.98527 -1.54301 -33.2991
LeftArm  3.58203 -20.9442 -35.44
LeftForeArm  8.65706 -3.31578 -17.2103
LeftHand  0.126855 -0.667162 -2.37784
RightShoulder  5.3788 6.38995 47.6349
RightArm  28.2827 -4.12383 14.6413
RightForeArm  8.25709 5.54841 17.3244
RightHand  0.0696514 3.94474 0.598992
LeftUpLeg  -2.95152 4.30997 -9.54776
LeftLeg  15.7559 11.6679 0.448575
LeftFoot  -12.4408 0.169564 9.83039
LeftToes  3.18074e-010 1.39432e-010 -7.71186e-011
953
root  -44.539 38.8169 -18.2598 1.81329 -56.6851 -4.16124
RightUpLeg  -23.8242 4.72952 -5.52397
RightLeg  36.1766 -8.06963 -6.53743
RightFoot  3.70967 -1.71235 13.103
RightToes  6.35937e-011 1.2921e-014 -6.02303e-014
Spine  8.89665 -2.94926 -5.30592
Spine1  0.282162 -3.67333 0.990094
HEad  -0.0145848 21.143 -2.90995
LeftShoulder1  2.06035 -1.91154 -32.0165
LeftArm  7.13396 -26.6565 -38.9828
LeftForeArm  8.22922 -7.47592 -15.8074
LeftHand  0.113211 -1.41758 -1.80823
RightShoulder  4.91144 5.58993 47.3237
RightArm  30.559 -4.45019 14.5769
RightForeArm  6.61063 7.17194 16.8201
RightHand  0.0984984 4.07934 0.934892
LeftUpLeg  0.664256 4.41477 -8.8699
LeftLeg  13.7296 8.15785 -0.47944
LeftFoot  -12.9325 0.231332 11.0056
LeftToes  3.18074e-010 1.39432e-010 -7.71186e-011
954
root  -45.6281 38.8002 -17.2993 2.2926 -53.3718 -4.61804
RightUpLeg  -22.327 3.22524 -4.1148
RightLeg  21.2073 -9.99505 -4.45415
RightFoot  4.41418 -1.8607 13.609
RightToes  6.35937e-011 1.2921e-014 -6.02303e-014
Spine  8.34204 -3.48686 -5.514
Spine1  0.486472 -4.3908 2.52719
HEad  -0.216287 21.2341 -2.78671
LeftShoulder1  2.13277 -2.28902 -30.7847
LeftArm  14.2791 -31.6765 -42.8448
LeftForeArm  6.24187 -12.156 -13.5393
LeftHand  0.0702089 -2.07821 -0.919368
RightShoulder  4.63828 5.07134 47.4003
RightArm  31.0023 -4.29304 14.3628
RightForeArm  5.30626 7.55789 16.746
RightHand  0.141217 4.17339 1.4376
LeftUpLeg  3.92763 4.5282 -8.26894
LeftLeg  12.2249 4.92811 -1.03024
LeftFoot  -14.0266 0.343897 11.0271
LeftToes  3.18074e-010 1.39432e-010 -7.71186e-011
955
root  -46.7509 38.665 -16.2721 2.25861 -50.5443 -4.48947
RightUpLeg  -20.0377 -1.27343 -2.07483
RightLeg  5.88966 -8.00738 -0.773715
RightFoot  4.62845 -2.01699 14.5355
RightToes  6.35937e-011 1.2921e-014 -6.02303e-014
Spine  7.71062 -3.8562 -5.70463
Spine1  0.670861 -4.8889 3.56659
HEad  0.0504196 21.1655 -2.57255
LeftShoulder1  2.18765 -2.66107 -29.4378
LeftArm  22.9115 -35.3737 -47.119
LeftForeArm  3.37598 -16.6619 -10.2967
LeftHand  0.00659539 -2.47962 0.101629
RightShoulder  4.62024 5.02038 47.5003
RightArm  27.0927 -4.10024 14.2021
RightForeArm  7.98747 5.61004 17.2529
RightHand  0.163651 4.21295 1.7
LeftUpLeg  7.0524 4.81637 -7.82387
LeftLeg  11.3284 2.13302 -1.47185
LeftFoot  -15.3056 0.480975 11.1923
LeftToes  3.18074e-010 1.39432e-010 -7.71186e-011
